<?xml version="1.0" encoding="UTF-8"?>
<svg width="400" height="240" viewBox="0 0 400 240" fill="none" xmlns="http://www.w3.org/2000/svg">
  <!-- Main text "Sakhi" -->
  <g transform="translate(80, 150)" fill="#d41367">
    <path d="M0 0C10.1328 0 17.8125 -1.6875 23.0391 -5.0625C28.2656 -8.4375 30.8789 -13.5 30.8789 -20.25C30.8789 -24.7188 29.4336 -28.2422 26.543 -30.8203C23.6523 -33.3984 19.8359 -34.6875 15.0938 -34.6875C8.78906 -34.6875 3.25195 -32.8438 -1.51367 -29.1562L4.5 -49.5C7.07812 -51.0469 9.88477 -52.207 12.9199 -52.9805C15.9551 -53.7539 19.0723 -54.1406 22.2715 -54.1406C30.3926 -54.1406 36.9902 -51.8086 42.0645 -47.1445C47.1387 -42.4805 49.6758 -36.2109 49.6758 -28.3359C49.6758 -18.1953 45.7207 -10.2773 37.8105 -4.58203C29.9004 1.11328 18.9531 3.9375 5 3.9375L0 0Z" />
    <path d="M55 0L79.459 0L63.8145 -49.5938L83.4844 -49.5938L100.361 0L125.518 0L125.518 -49.5938L145.293 -49.5938L145.293 0L170.244 0L170.244 -49.5938L189.492 -49.5938L189.492 0L214.754 0L214.754 -3.9375L234 -3.9375L234 -24.5625L214.754 -24.5625L214.754 -29.0332L234 -29.0332L234 -49.5938L190.029 -49.5938L190.029 -3.9375L170.781 -3.9375L170.781 -49.5938L145.83 -49.5938L145.83 -3.9375L126.055 -3.9375L126.055 -49.5938L100.898 -49.5938L83.752 -3.9375L64.082 -3.9375L79.7266 -49.5938L55 -49.5938L55 0Z" />
  </g>
  
  <!-- Stylized people figures and dots around the text -->
  <g transform="translate(200, 100)" fill="#d41367">
    <!-- Left figure (smaller) -->
    <path d="M-100 0C-95 -10 -103 -15 -110 -10C-117 -5 -115 5 -110 10C-105 15 -95 10 -100 0Z" />
    <circle cx="-115" cy="-15" r="8" />
    
    <!-- Right figure (larger) -->
    <path d="M50 -15C60 -30 40 -40 30 -30C20 -20 25 0 35 10C45 20 65 10 50 -15Z" />
    <circle cx="20" cy="-35" r="12" />
    
    <!-- Dots -->
    <circle cx="75" cy="0" r="8" />
    <circle cx="90" cy="-15" r="6" />
  </g>
</svg>